<?xml version="1.0" encoding="utf-8"?>
<!DOCTYPE svg PUBLIC "-//W3C//DTD SVG 1.0//EN" "http://www.w3.org/TR/2001/REC-SVG-20010904/DTD/svg10.dtd">
<svg version="1.0" xmlns="http://www.w3.org/2000/svg" width="512px" height="512px" viewBox="0 0 512 512" preserveAspectRatio="xMidYMid meet">
 <g fill="#ffffff">
  <path d="M102.9 406 c-90.5 -6.7 -114.6 -53.9 -65 -127.6 8.6 -12.8 16.7 -23.2 28 -35.9 9.9 -11 16.2 -20.8 27.6 -43 17 -33 28.6 -49.8 46.9 -68 13.6 -13.5 26.4 -22.7 42.1 -30.5 39.7 -19.5 79.1 -21.1 131.9 -5.4 23.6 7.1 25.9 7.4 61.1 8.4 17.6 0.5 37.5 1.6 44.3 2.5 49.6 6.3 76.4 23.4 80.3 51.2 3.4 24 -14.1 60 -47.7 98.4 -67.3 76.7 -185.1 136.8 -290.9 148.3 -18.2 2 -44 2.7 -58.6 1.6z m75.8 -76 c2.9 -1 11.4 -8.8 36.6 -33.8 l32.7 -32.6 32.8 32.6 c30 29.9 33.1 32.7 37.7 34.1 18 5.2 34.7 -10.1 30.4 -27.9 -1.1 -4.6 -3.3 -7 -34 -38 -18.1 -18.1 -32.9 -33.4 -32.9 -34 0 -0.5 14 -14.9 31.1 -31.9 17.1 -17.1 32.2 -33 33.7 -35.4 2 -3.5 2.6 -5.6 2.5 -10.5 0 -3.4 -0.7 -7.7 -1.6 -9.6 -1.9 -4.4 -8.2 -10.8 -12.4 -12.6 -4.4 -1.9 -14.2 -1.8 -18.9 0.2 -2.7 1.1 -13.8 11.5 -36 33.5 -17.6 17.5 -32.4 31.9 -32.9 31.9 -0.5 0 -15.5 -14.6 -33.5 -32.4 -17.9 -17.9 -33.8 -33 -35.3 -33.5 -1.6 -0.6 -5.6 -1.1 -9.1 -1.1 -12.9 0 -22.6 9.9 -22.6 23.1 0 3.3 0.7 7.6 1.5 9.7 1.1 2.5 12.3 14.4 33.8 35.9 l32.1 32.3 -31.6 31.7 c-19.9 20 -32.4 33.4 -33.7 36 -2.9 5.7 -2.9 15.1 0 21 5.1 10.5 17.4 15.2 29.6 11.3z"/>
 </g>
</svg>