<?xml version="1.0" encoding="utf-8"?>
<!DOCTYPE svg PUBLIC "-//W3C//DTD SVG 1.0//EN" "http://www.w3.org/TR/2001/REC-SVG-20010904/DTD/svg10.dtd">
<svg version="1" xmlns="http://www.w3.org/2000/svg" width="512px" height="512px" viewBox="0 0 5120 5120" preserveAspectRatio="xMidYMid meet">
 <g fill="#ffffff">
<path d="M 1040 4070 c -556 -38 -860 -216 -916 -535 c -50 -283 125 -662 510 -1100 c 128 -145 163 -200 295 -454 c 168 -322 293 -504 468 -678 c 437 -435 1014 -565 1678 -377 c 72 20 168 47 215 60 c 106 30 256 44 475 44 c 673 1 1093 147 1214 422 c 86 193 17 472 -197 793 c -423 635 -1188 1204 -2065 1536 c -576 218 -1185 323 -1677 289 z m 581 -627 c 124 -121 137 -132 148 -117 c 12 18 90 63 172 102 c 170 79 323 112 514 112 c 210 0 370 -37 550 -127 c 50 -25 92 -48 95 -52 c 3 -3 25 -19 50 -35 c 90 -58 178 -144 291 -283 c 9 -11 34 -51 56 -89 c 112 -197 150 -328 160 -551 l 5 -123 l -206 0 l -206 0 l 0 68 c 0 308 -209 611 -501 726 c -205 81 -427 73 -629 -22 c -30 -14 -57 -27 -59 -28 c -2 -2 48 -57 110 -124 c 63 -66 118 -132 123 -146 c 11 -35 0 -87 -24 -101 c -22 -15 -762 -31 -841 -19 c -36 5 -49 12 -58 32 c -15 33 -15 783 -1 836 c 14 49 44 71 93 65 c 31 -4 55 -23 158 -124 z m 73 -1050 c 3 -21 6 -65 6 -99 c 0 -34 4 -74 9 -90 c 5 -16 17 -56 26 -88 c 16 -54 49 -120 100 -201 c 30 -48 165 -178 225 -216 c 134 -86 254 -119 425 -119 c 151 0 226 16 353 78 l 53 26 l -94 95 c -127 131 -157 168 -157 196 c 0 37 19 72 47 84 c 38 17 852 15 876 -3 c 16 -12 17 -45 17 -438 c 0 -415 0 -426 -21 -452 c -17 -21 -29 -26 -66 -26 c -46 0 -48 2 -172 124 l -126 123 l -40 -28 c -49 -34 -218 -119 -237 -119 c -8 0 -18 -4 -23 -9 c -6 -4 -41 -16 -80 -25 c -38 -10 -90 -23 -115 -29 c -75 -19 -351 -15 -455 7 c -240 49 -442 159 -615 335 c -52 53 -108 116 -125 141 c -16 25 -32 47 -35 50 c -28 28 -129 252 -145 322 c -2 13 -9 43 -15 68 c -26 114 -40 307 -23 323 c 3 4 95 7 203 7 l 197 0 l 7 -37 z"></path>
 </g>
</svg>