<?xml version="1.0" encoding="utf-8"?>
<!DOCTYPE svg PUBLIC "-//W3C//DTD SVG 1.0//EN" "http://www.w3.org/TR/2001/REC-SVG-20010904/DTD/svg10.dtd">
<svg version="1.0" xmlns="http://www.w3.org/2000/svg" width="682px" height="682px" viewBox="0 0 6820 6820" preserveAspectRatio="xMidYMid meet">
 <g fill="#ffffff">
<path d="M1430 5414 c-653 -44 -1046 -217 -1199 -529 -48 -97 -64 -176 -64 -305 1 -176 45 -341 149 -555 122 -253 299 -500 606 -849 107 -121 150 -190 300 -479 72 -139 155 -295 186 -347 115 -199 270 -405 424 -565 l87 -90 1 45 c0 25 10 65 21 90 30 68 2462 2502 2534 2536 95 45 196 25 266 -53 70 -77 87 -179 44 -265 -20 -38 -2453 -2478 -2503 -2510 -19 -11 -52 -26 -74 -33 l-41 -12 94 -58 c367 -228 796 -330 1242 -297 249 19 408 51 711 142 291 87 311 89 741 100 389 9 592 25 795 61 1032 182 1197 771 481 1722 -382 509 -933 982 -1596 1372 -156 92 -594 319 -601 312 -3 -2 3 -32 12 -66 37 -148 -44 -309 -193 -383 -53 -26 -76 -31 -136 -32 -60 0 -83 5 -137 30 -90 42 -134 84 -172 162 -30 60 -33 76 -33 152 0 66 5 96 22 132 27 59 105 143 156 170 22 11 37 21 35 23 -10 10 -411 141 -552 180 -554 154 -1156 228 -1606 199z m1722 -1278 c21 -8 69 -32 107 -55 86 -53 242 -107 346 -122 72 -10 181 -6 228 7 9 3 17 1 17 -4 0 -5 -96 -105 -212 -221 l-213 -212 -38 5 c-63 10 -237 81 -332 135 -114 65 -179 132 -194 199 -26 123 54 236 194 272 43 11 55 11 97 -4z m-627 -645 c22 -10 65 -38 95 -63 103 -83 279 -192 388 -238 28 -12 52 -28 52 -34 0 -7 -79 -87 -176 -179 l-175 -167 -77 42 c-174 93 -348 226 -403 308 -15 23 -31 62 -35 86 -25 170 173 317 331 245z m2545 -2 c60 -27 79 -45 106 -104 32 -67 32 -163 1 -222 -54 -104 -422 -342 -687 -446 -227 -89 -473 -136 -752 -144 -148 -5 -178 -3 -178 8 0 8 107 121 238 251 l237 238 126 34 c251 69 444 168 620 318 104 88 196 109 289 67z m-3217 -633 c18 -7 86 -58 152 -113 127 -105 211 -166 313 -228 34 -21 62 -41 62 -45 0 -3 -77 -79 -170 -168 l-171 -161 -67 42 c-184 114 -400 298 -428 364 -19 44 -18 147 2 189 19 40 83 100 128 120 40 17 138 18 179 0z m3909 -22 c60 -44 100 -112 106 -179 7 -83 -27 -143 -130 -234 -434 -382 -988 -639 -1569 -729 -158 -24 -200 -26 -469 -27 -255 0 -316 3 -450 23 -85 12 -177 27 -205 33 -85 19 -270 71 -277 78 -4 4 79 94 186 200 l193 193 164 -28 c148 -25 188 -28 404 -28 259 0 310 6 555 59 198 44 380 106 566 195 215 103 395 218 574 370 115 97 147 111 237 108 61 -3 77 -8 115 -34z"></path> </g>
</svg>