<?xml version="1.0" encoding="UTF-8" standalone="no"?>
<!-- Created with Inkscape (http://www.inkscape.org/) -->

<svg
   version="1.1"
   id="svg1"
   width="682.66669"
   height="682.66669"
   viewBox="0 0 682.66669 682.66669"
   sodipodi:docname="YandexDisk.svg"
   inkscape:version="1.4 (e7c3feb100, 2024-10-09)"
   xmlns:inkscape="http://www.inkscape.org/namespaces/inkscape"
   xmlns:sodipodi="http://sodipodi.sourceforge.net/DTD/sodipodi-0.dtd"
   xmlns="http://www.w3.org/2000/svg"
   xmlns:svg="http://www.w3.org/2000/svg">
  <defs
     id="defs1" />
  <sodipodi:namedview
     id="namedview1"
     pagecolor="#ffffff"
     bordercolor="#000000"
     borderopacity="0.25"
     inkscape:showpageshadow="2"
     inkscape:pageopacity="0.0"
     inkscape:pagecheckerboard="0"
     inkscape:deskcolor="#d1d1d1"
     inkscape:zoom="1.696289"
     inkscape:cx="341.33334"
     inkscape:cy="341.33334"
     inkscape:window-width="2494"
     inkscape:window-height="1371"
     inkscape:window-x="0"
     inkscape:window-y="0"
     inkscape:window-maximized="1"
     inkscape:current-layer="g1" />
  <g
     inkscape:groupmode="layer"
     inkscape:label="Image"
     id="g1">
    <path
       style="fill:#ffffff"
       d="M 125.17905,540.95384 C -7.2183205,527.39718 -20.372094,440.68308 91.388191,318.19314 103.50471,304.91338 108.89601,296.03199 127.64299,258.46863 190.19727,133.12849 291.98466,86.95355 418.5124,126.51833 c 34.13972,10.67537 35.83162,10.90369 83.33333,11.24594 158.44717,1.1416 204.90624,57.5854 134.12185,162.94661 -99.65402,148.33309 -333.63372,258.3825 -510.78853,240.24296 z m 176.51478,-64.3703 C 418.65378,451.50945 545.13988,359.0479 518.17907,318.33248 496.39971,285.44195 373.88629,313.86419 285.84842,372.23154 182.946,440.45379 192.00291,500.09928 301.69383,476.58354 Z"
       id="path1" />
  </g>
</svg>
